<svg width="144px" height="86px" viewBox="0 0 144 86" version="1.1" xmlns="http://www.w3.org/2000/svg" xmlns:xlink="http://www.w3.org/1999/xlink">
    <!-- Generator: sketchtool 61.1 (101010) - https://sketch.com -->
    <title>0752CEA8-E84C-47B3-9C7C-0680E4686C14</title>
    <desc>Created with sketchtool.</desc>
    <defs>
        <polygon id="path-1" points="6.95618626e-05 0.433909184 24.6945308 0.433909184 24.6945308 58.0413779 6.95618626e-05 58.0413779"></polygon>
        <polygon id="path-3" points="0.120759393 0.433909184 24.8152206 0.433909184 24.8152206 58.0413779 0.120759393 58.0413779"></polygon>
        <polygon id="path-5" points="0.482411517 0.433909184 25.1775684 0.433909184 25.1775684 58.0413779 0.482411517 58.0413779"></polygon>
        <polygon id="path-7" points="0.603101349 0.433909184 25.2975626 0.433909184 25.2975626 58.0409601 0.603101349 58.0409601"></polygon>
    </defs>
    <g id="Page-1" stroke="none" stroke-width="1" fill="none" fill-rule="evenodd">
        <g id="CDC---Phase-01---Desktop---Form-Submission" transform="translate(-648.000000, -19.000000)">
            <g id="Group-4" transform="translate(648.000000, 19.000000)">
                <path d="M101.172929,71.9623899 L99.3650166,71.9623899 L99.3650166,81.6553499 L98.702092,80.5855514 C98.6533987,80.5012769 98.6033142,80.4156094 98.5455778,80.3187982 L98.1449015,79.6870877 L93.2547025,71.9623899 L90.9153371,71.9623899 L90.9153371,85.0089177 L92.7232499,85.0089177 L92.7232499,75.258846 L98.9462541,85.0089177 L101.172929,85.0089177 L101.172929,79.3472038 L143.552799,79.3472038 L143.552799,77.6700717 L101.172929,77.6700717 L101.172929,71.9623899 Z M57.3746938,79.4809286 L61.1915532,79.4809286 L59.2827757,77.1888016 L57.3746938,79.4809286 Z M85.2759569,77.7216115 L79.7207466,77.7216115 L79.7207466,71.9623899 L77.257561,71.9623899 L77.257561,85.0089177 L79.7207466,85.0089177 L79.7207466,79.2873062 L85.2759569,79.2873062 L85.2759569,85.0089177 L87.7398381,85.0089177 L87.7398381,71.9623899 L85.2759569,71.9623899 L85.2759569,77.7216115 Z M72.5447448,77.8393172 L72.5447448,77.8393172 L70.8961287,76.8830454 C70.355633,76.5689314 69.9410443,76.2840696 69.6614056,76.036818 C69.3657677,75.7742438 69.2169053,75.4183407 69.2169053,74.9781632 C69.2169053,74.607634 69.2989883,74.3102356 69.4603718,74.0929327 C69.6203641,73.8805053 69.8220935,73.7161352 70.0592995,73.6033049 C70.2930273,73.4932605 70.5462325,73.4208262 70.8112632,73.3880915 C71.0721202,73.3567497 71.305848,73.3407306 71.5075774,73.3407306 C71.9103406,73.3407306 72.2755404,73.3699829 72.5927425,73.4270946 C72.9043796,73.4835097 73.1728884,73.5441038 73.3899214,73.6074838 C73.5909552,73.6708638 73.7752942,73.7439945 73.9422426,73.8247866 L74.457696,72.293916 C74.255271,72.2110345 74.0118045,72.1365108 73.733557,72.0724343 C73.4504403,72.0111437 73.0942835,71.9519426 72.6741299,71.896224 C72.2560631,71.8405053 71.7559133,71.812646 71.1889841,71.812646 C69.8207023,71.812646 68.7571014,72.1232776 68.0294843,72.7368795 C67.3067366,73.345606 66.9401455,74.2510345 66.9401455,75.4280915 C66.9401455,75.8766268 67.0041425,76.2715329 67.1307451,76.6030591 C67.2573476,76.9352817 67.4284698,77.2319836 67.6385466,77.4848071 C67.8521016,77.7404165 68.0913944,77.9688631 68.3522514,78.1624855 C68.6179777,78.3609833 68.8955295,78.5413725 69.1758638,78.7001707 L71.1270741,79.8639945 C71.5966166,80.1572141 71.9444259,80.4358074 72.1628502,80.6921133 C72.3896219,80.959563 72.5050946,81.3091977 72.5050946,81.7312666 C72.5050946,82.4416798 72.2518894,82.9438443 71.7517396,83.2238307 C71.2710671,83.4940662 70.6213593,83.630577 69.8207023,83.630577 C69.3789845,83.630577 68.9824818,83.5985388 68.6409331,83.5351588 C68.3021668,83.4724752 68.0079201,83.4021304 67.7679317,83.3262137 C67.532117,83.2509935 67.315084,83.165326 67.1230932,83.0713008 L66.5916406,84.5993855 C66.8538888,84.6968931 67.1530048,84.7846501 67.4820325,84.8619597 C67.8034083,84.935787 68.1985196,85.0047388 68.6534542,85.0660294 C69.1090844,85.1280164 69.6474932,85.1593581 70.2519858,85.1593581 C71.7440878,85.1593581 72.8953366,84.8173848 73.6723426,84.1424923 C74.4451749,83.4703858 74.8375038,82.514114 74.8375038,81.2994469 C74.8375038,80.4748105 74.6448174,79.7978286 74.2664009,79.2859133 C73.8831151,78.7677296 73.3036647,78.2808877 72.5447448,77.8393172 L72.5447448,77.8393172 Z M61.7285708,82.3803892 C61.1685978,83.2475111 60.2865534,83.6869921 59.1067842,83.6869921 C57.9026684,83.6869921 57.0115809,83.2537794 56.4578685,82.3991943 C55.9125035,81.5585388 55.6363429,80.2547217 55.6363429,78.5232639 C55.6363429,76.7674292 55.918764,75.4413247 56.4766502,74.5818641 C57.0428837,73.7084739 57.9277106,73.2662069 59.1067842,73.2662069 C60.3115957,73.2662069 61.1999006,73.702902 61.7473525,74.5637555 C62.2864569,75.4106794 62.5591394,76.7179788 62.5591394,78.4487402 C62.5591394,80.2038785 62.2801964,81.527197 61.7285708,82.3803892 L61.7285708,82.3803892 Z M59.0886981,71.7374257 C58.144048,71.7374257 57.2863503,71.8955275 56.5406471,72.2082485 C55.7970308,72.5195766 55.156366,72.9778628 54.6381301,73.5705702 C54.118503,74.1632776 53.7150442,74.8994606 53.4395793,75.7582247 C53.162723,76.6197747 53.0229037,77.6129601 53.0229037,78.710618 C53.0229037,80.8133015 53.5529651,82.4409833 54.5977843,83.5483919 C55.6412122,84.6551041 57.164617,85.2157733 59.1262615,85.2157733 C60.0695204,85.2157733 60.9272181,85.0569751 61.6736169,84.7449505 C62.4179289,84.4329259 63.0551155,83.9781222 63.5670908,83.3916832 C64.0804574,82.8045476 64.4804381,82.071847 64.7552074,81.213083 C65.0327593,80.3515329 65.1725786,79.3583476 65.1725786,78.2606897 C65.1725786,76.1580061 64.6459953,74.5275384 63.6067411,73.4131649 C62.5695737,72.3008808 61.0489514,71.7374257 59.0886981,71.7374257 L59.0886981,71.7374257 Z M47.5365596,77.7473814 C47.3487426,77.8365312 47.1748379,77.8999112 47.0183237,77.9368249 C46.8625051,77.9723455 46.705991,77.9967224 46.5522592,78.0085626 C46.40131,78.0197064 46.1773208,78.0259747 45.8886391,78.0259747 L45.5053532,78.0259747 C45.3912718,78.0259747 45.0984163,78.0015978 45.0399843,77.9883646 L44.9655532,77.9709525 L44.9655532,73.0774599 L45.064331,73.0774599 C45.1095462,73.0774599 45.1672826,73.071888 45.2354532,73.0614408 C45.3126669,73.0600478 45.3947498,73.0572619 45.4990926,73.0509935 C45.6062179,73.0454216 45.7425592,73.0426357 45.9074208,73.0426357 C46.2886198,73.0426357 46.6461678,73.0788529 46.970326,73.1491977 C47.3014405,73.2209355 47.5956872,73.3525708 47.8433274,73.5399249 C48.0930545,73.7286719 48.289219,73.9856743 48.4255602,74.3046637 C48.5605102,74.6201707 48.6293765,75.0192557 48.6293765,75.490775 C48.6293765,75.9260772 48.573727,76.2945169 48.4652105,76.5870399 C48.3546071,76.87817 48.2210483,77.1226357 48.0659254,77.3134722 C47.9087156,77.5077911 47.7299416,77.6540526 47.5365596,77.7473814 L47.5365596,77.7473814 Z M48.4436463,78.6625606 C48.92571,78.5169956 49.3709059,78.2892455 49.7694954,77.9862752 C50.0936537,77.7285763 50.3997259,77.3698873 50.6772777,76.9185661 C50.9534383,76.4728167 51.092562,75.8870741 51.092562,75.1787504 C51.092562,74.4077433 50.8497911,73.7509594 50.3719011,73.2272038 C49.890533,72.7013588 49.2449989,72.338491 48.4499069,72.1476545 C48.0478393,72.0571116 47.5706449,71.9965176 47.0357142,71.9679618 C46.492436,71.9394059 45.9108989,71.9247798 45.3077975,71.9247798 C44.9203379,71.9247798 44.5467907,71.9310481 44.1968946,71.9421919 C43.8539546,71.9540321 43.5576211,71.9651758 43.307894,71.977016 C43.0463414,71.9874633 42.809831,71.9972141 42.5962761,72.0069648 L42.5962761,77.6700717 L6.95618625e-05,77.6700717 L6.95618625e-05,79.3472038 L42.5962761,79.3472038 L42.5962761,84.9928986 L44.9655532,84.9928986 L44.9655532,79.0393581 L45.9582009,79.0393581 L49.8362748,85.0228474 L52.7328307,85.0228474 L48.3114787,78.7029566 L48.4436463,78.6625606 Z" id="Fill-1" fill="#4D6075"></path>
                <g id="Group-6">
                    <mask id="mask-2" fill="white">
                        <use xlink:href="#path-1"></use>
                    </mask>
                    <g id="Clip-5"></g>
                    <path d="M13.5528072,36.6293875 C14.7812697,37.5515316 15.4386293,38.5934708 15.5074956,39.7245599 C15.5547977,40.5269088 15.0685602,41.4469635 14.6386679,42.2583667 L14.5155434,42.4916886 C14.2866849,42.9269908 14.0404359,43.4159222 13.826881,43.9348023 C13.3538603,43.7349116 12.7841487,43.5036791 12.36956,43.3713472 L12.1316584,43.296127 C11.2517008,43.0196231 10.255575,42.7062055 9.72481795,42.097479 C8.98050602,41.2435903 8.7182578,40.0393704 8.94711633,38.5189471 C9.11336918,37.4115384 9.54465273,36.164833 10.1762744,34.9508624 C11.4770813,35.3715384 12.6575461,35.957281 13.5528072,36.6293875 L13.5528072,36.6293875 Z M9.06398026,42.6748638 C9.8124659,43.5336279 11.0631882,43.8769942 12.1038337,44.2078238 C12.8891871,44.4592544 14.3374651,45.1160382 14.3374651,45.1160382 C14.5572805,44.3589607 14.9071767,43.6304391 15.2911582,42.8998279 C15.7989598,41.9324124 16.4500588,40.8096811 16.3825838,39.6730201 C16.1947668,36.5827231 12.6387644,34.696646 9.7491646,33.9075302 C8.2438459,36.4991451 7.03138263,40.3430372 9.06398026,42.6748638 L9.06398026,42.6748638 Z M21.9844006,24.1867108 L21.9120563,24.4256046 C21.6442431,25.3087456 21.3402578,26.3095924 20.7371564,26.8465811 C20.0791012,27.4316272 19.2005349,27.7290256 18.1244129,27.7290256 C16.8069112,27.7290256 15.1854242,27.271436 13.59524,26.4614257 C14.0035681,25.1555193 14.5774535,23.9673185 15.240378,23.064676 C16.1495516,21.8270249 17.1839365,21.1584008 18.3136211,21.0790017 C18.3567495,21.0762158 18.4012691,21.0748228 18.4443974,21.0748228 C19.2116648,21.0748228 20.0825793,21.5261441 20.8512379,21.9252291 L21.0849657,22.0464172 C21.5225098,22.2713814 22.012921,22.5130611 22.5332437,22.7220061 C22.3377749,23.1970079 22.1130901,23.7702137 21.9844006,24.1867108 L21.9844006,24.1867108 Z M18.4443974,20.1965572 C18.3804005,20.1965572 18.3170992,20.1986466 18.2531023,20.203522 C15.1680337,20.4208249 13.3176882,23.9986603 12.557377,26.8988173 C14.1572998,27.8105142 16.2295477,28.6065947 18.1244129,28.6065947 C19.3118339,28.6065947 20.4303886,28.2945702 21.3193892,27.501972 C22.1708264,26.7448945 22.5012453,25.4898313 22.8226211,24.4444097 C23.0660876,23.6559904 23.7088392,22.20034 23.7088392,22.20034 C22.9499193,21.9865196 22.2195197,21.6431533 21.4863377,21.2649628 C20.5695123,20.7948365 19.5142589,20.1965572 18.4443974,20.1965572 L18.4443974,20.1965572 Z M11.2155287,29.9166801 L10.7724196,30.2509921 L10.8844142,30.7949457 C10.9108477,30.9244916 11.085448,31.7533069 11.3247408,32.550084 C10.7397255,32.3550686 10.1268855,32.212986 9.49178571,32.1245326 L8.942247,32.0472229 L8.63826166,32.5117774 C8.5652217,32.6218218 8.10333093,33.3315384 7.71030641,34.0635425 C7.4334502,33.5112311 7.10094449,32.9756354 6.71418054,32.4644165 L6.3802836,32.0221495 L5.83770107,32.1342834 C5.71040286,32.1607497 4.9013984,32.3313882 4.11465373,32.5661031 C4.42976897,31.6091349 4.51115635,30.7447989 4.51533006,30.6960451 L4.55915404,30.2105961 L4.17030322,29.9166801 C3.66806658,29.5377931 3.14565699,29.2104459 2.60794379,28.9381209 C3.14704823,28.6644029 3.66945781,28.3370557 4.17099884,27.9588651 L4.56680584,27.6593773 L4.51393883,27.1655705 C4.50906949,27.1154237 4.41446536,26.260142 4.12300116,25.3463558 C4.68923472,25.5302274 5.28051055,25.6660417 5.89195932,25.7524056 L6.40393463,25.8227504 L6.71418054,25.4111287 C7.09259707,24.9103571 7.42023344,24.3866016 7.69291595,23.8461304 C7.96629407,24.3879945 8.29323482,24.9117501 8.67095573,25.4111287 L9.00554829,25.8533957 L9.5474352,25.7412619 C9.67682027,25.7147955 10.5039108,25.5406746 11.3003941,25.3010843 C11.1056209,25.8861304 10.9637147,26.5004288 10.8746755,27.1370147 L10.7988531,27.6865401 L11.2621351,27.9915999 C11.3720429,28.0640341 12.0808782,28.5264991 12.812669,28.9207088 C12.2617391,29.1972127 11.7268084,29.5301318 11.2155287,29.9166801 L11.2155287,29.9166801 Z M14.0870424,28.553662 C13.2321271,28.2374585 11.7435032,27.2575063 11.7435032,27.2575063 C11.8666277,26.3722759 12.1038337,25.5107258 12.4850327,24.684 C12.571985,24.4973424 12.5344216,24.3197392 12.4384262,24.1867108 C12.3570388,24.1282062 12.2596522,24.0912926 12.152527,24.0912926 C12.0850519,24.0912926 12.0140988,24.1059187 11.9417545,24.1393499 C11.1153596,24.5210229 9.37005245,24.8818013 9.37005245,24.8818013 C8.83164364,24.1686023 8.39270828,23.3913267 8.07759305,22.5360451 C8.00524871,22.3431192 7.85499509,22.244915 7.69291595,22.2170557 C7.53083681,22.244915 7.37988756,22.3431192 7.30754323,22.5360451 C6.99312361,23.3913267 6.55349264,24.1686023 6.01508382,24.8818013 L6.0143882,24.8824978 C5.13095255,24.7585237 4.26977669,24.5210229 3.44407738,24.1393499 C3.37103742,24.1059187 3.30077994,24.0912926 3.23260932,24.0912926 C3.12687529,24.0912926 3.02809744,24.1275097 2.94671006,24.1860143 C2.85071469,24.3197392 2.79923891,24.5043073 2.90010361,24.684 C3.47885831,25.7196709 3.64232869,27.2582028 3.64232869,27.2582028 C2.9293196,27.797281 2.15300921,28.238155 1.29948515,28.553662 C1.10610318,28.6247033 1.00732533,28.7758402 0.980196206,28.9381209 C1.00732533,29.099705 1.10610318,29.2522349 1.29948515,29.3232762 C2.15300921,29.6373902 2.9293196,30.0789607 3.64232869,30.6173424 C3.64232869,30.6173424 3.51155239,32.0695104 2.90079923,33.1915452 C2.80202139,33.3726309 2.85071469,33.5558061 2.94671006,33.6895309 C3.02809744,33.7480355 3.12687529,33.7849491 3.23330493,33.7849491 C3.30077994,33.7849491 3.37173304,33.770323 3.44407738,33.7361953 C4.26977669,33.3552188 6.01508382,32.9944404 6.01508382,32.9944404 C6.55349264,33.706943 6.99312361,34.483522 7.30754323,35.3395002 C7.37988756,35.5324261 7.53083681,35.6313267 7.69291595,35.6577931 C7.85499509,35.6313267 8.00594433,35.5324261 8.07759305,35.3395002 C8.39270828,34.483522 9.37005245,32.9937439 9.37005245,32.9937439 C10.2548793,33.1170215 11.1153596,33.3538259 11.9417545,33.7361953 C12.0140988,33.770323 12.0857476,33.7849491 12.1532226,33.7849491 C12.2596522,33.7849491 12.3570388,33.7480355 12.4377306,33.6902274 C12.5344216,33.5558061 12.5712894,33.3782028 12.4850327,33.1915452 C12.1038337,32.3648194 11.7428076,30.6173424 11.7428076,30.6173424 C12.4558167,30.0789607 13.2321271,29.6373902 14.0870424,29.3232762 C14.2790331,29.2522349 14.3785066,29.099705 14.4049401,28.9388173 C14.3785066,28.7758402 14.2790331,28.6247033 14.0870424,28.553662 L14.0870424,28.553662 Z M12.1949597,14.6755329 L12.4453824,14.5954374 C12.9142294,14.4449969 13.431074,14.2694831 13.9465274,14.0486978 C14.1447787,14.5230031 14.3896365,15.0871547 14.5927571,15.47231 L14.7103166,15.6923988 C15.1443827,16.5065879 15.636185,17.4294285 15.5895786,18.2366528 C15.5227992,19.3684384 14.8675265,20.4110741 13.6411508,21.3360041 C12.7472809,22.0095036 11.5675117,22.5973356 10.2674005,23.0207975 C9.63369191,21.8082199 9.20032151,20.562211 9.0319818,19.4541058 C8.8003408,17.9350755 9.05980655,16.7301591 9.80203162,15.8748774 C10.3293105,15.2689368 11.3205671,14.9534298 12.1949597,14.6755329 L12.1949597,14.6755329 Z M9.8423775,24.0648262 C12.7291948,23.2708351 16.283806,21.3777931 16.4646668,18.2874961 C16.5314462,17.1494421 15.8789559,16.0281038 15.3676762,15.0613848 C14.9829991,14.3314701 14.4084182,12.8472639 14.4084182,12.8472639 C13.7218426,13.2331157 12.9629227,13.5075302 12.1775692,13.7596572 C11.138315,14.0946658 9.88828833,14.4387286 9.14119392,15.2981891 C7.11346563,17.6355876 8.33149384,21.4753008 9.8423775,24.0648262 L9.8423775,24.0648262 Z M7.45153628,3.47398976 L7.45153628,6.7363182 C7.08564088,6.91392147 6.83174009,7.28654012 6.83174009,7.72114578 C6.83174009,8.32708638 7.32215122,8.8181072 7.92733942,8.8181072 C8.53252763,8.8181072 9.02363438,8.32708638 9.02363438,7.72114578 C9.02363438,7.25728781 8.73495265,6.8623817 8.32871137,6.70149403 L8.32871137,3.47190031 C8.71408409,3.30126186 8.98467973,2.916803 8.98467973,2.46826767 C8.98467973,1.86232707 8.49357298,1.37060976 7.88768916,1.37060976 C7.28250096,1.37060976 6.79208982,1.86232707 6.79208982,2.46826767 C6.79208982,2.91889245 7.06407671,3.30474428 7.45153628,3.47398976 L7.45153628,3.47398976 Z M7.69291595,11.2349047 C8.43583664,11.6221495 9.30257745,12.0685954 10.2131422,12.5213097 C9.24692796,12.7880628 8.39618638,13.2526173 7.69222033,13.896168 C6.9889499,13.2526173 6.13890394,12.7887593 5.17199405,12.5213097 C6.06586398,12.0776497 6.92008365,11.6374722 7.69291595,11.2349047 L7.69291595,11.2349047 Z M3.91709804,13.1746111 C5.43076417,13.3382847 6.75661327,13.9769601 7.69291595,15.1888412 C8.62782738,13.9769601 9.9543721,13.3382847 11.4687338,13.1746111 C11.8930612,13.1293397 12.1900904,12.5045941 11.7115047,12.2761475 C10.3578309,11.6270249 9.02224314,10.9409887 7.69291595,10.2445053 C6.36219751,10.9409887 5.02800099,11.6270249 3.67432714,12.2761475 C3.19504591,12.5045941 3.49207506,13.1293397 3.91709804,13.1746111 L3.91709804,13.1746111 Z M18.3720531,39.6186944 C19.3201813,39.5574039 20.2474409,39.2620949 21.1093124,38.7508761 C20.8088051,39.7043619 20.5333402,40.6258095 20.2877868,41.4622861 C19.4940859,41.7304322 18.5716956,42.0466357 17.6145244,42.3906985 C18.0924144,41.5075575 18.3484021,40.5728767 18.3720531,39.6186944 L18.3720531,39.6186944 Z M16.2740673,42.8434128 C16.0445132,43.1401147 16.2052011,43.675014 16.5822264,43.675014 C16.635789,43.675014 16.6928297,43.6645667 16.7533485,43.6415828 C18.1584982,43.1143448 19.5782558,42.6261099 21.0007959,42.1490188 C21.4216451,40.7066016 21.8529287,39.2676668 22.3231669,37.8412687 C22.4407264,37.4867586 22.1520447,37.2736347 21.8571024,37.2736347 C21.7318911,37.2736347 21.6052885,37.3112448 21.5085975,37.3934298 C20.4853425,38.2514974 19.2993127,38.752269 17.9978103,38.752269 C17.8148626,38.752269 17.6291324,38.7425183 17.4413154,38.7223202 C17.6653046,40.2371717 17.2055007,41.6371034 16.2740673,42.8434128 L16.2740673,42.8434128 Z M20.1577061,16.4724602 C20.4352579,17.2622724 20.7615031,18.1809341 21.1176598,19.1344199 C20.2314417,18.6656866 19.3013996,18.4240068 18.3400546,18.4135596 C18.2663191,17.4614667 17.9630293,16.5414121 17.4399241,15.6847375 C18.3957041,15.9730816 19.31879,16.2370488 20.1577061,16.4724602 L20.1577061,16.4724602 Z M17.4573146,19.3572946 C17.7334752,19.3127197 18.0054621,19.2904322 18.2739709,19.2904322 C19.473913,19.2904322 20.5931634,19.7236449 21.587898,20.4730611 C21.6804153,20.5427095 21.795888,20.5754442 21.910665,20.5754442 C22.2167372,20.5754442 22.5193313,20.3435152 22.3788164,19.9834333 C21.8348426,18.5828051 21.3291279,17.1682472 20.834543,15.7495104 C19.3883519,15.346943 17.9456389,14.9332318 16.515447,14.4805176 C16.4618843,14.4631055 16.4111042,14.4554442 16.3644977,14.4554442 C15.9707776,14.4554442 15.8288714,15.0119344 16.0785985,15.302368 C17.0712463,16.4585306 17.6020033,17.8319959 17.4573146,19.3572946 L17.4573146,19.3572946 Z M7.69291595,46.7270044 C6.95069087,46.3397596 6.08325445,45.8933138 5.17199405,45.441296 C6.13890394,45.1738464 6.98964551,44.7099884 7.69291595,44.0657412 C8.39618638,44.7099884 9.24762357,45.1738464 10.2131422,45.4405995 C9.31927229,45.8842595 8.46574824,46.324437 7.69291595,46.7270044 L7.69291595,46.7270044 Z M11.4687338,44.7872981 C9.9543721,44.6236244 8.628523,43.9849491 7.69291595,42.7737644 C6.75730889,43.9849491 5.43076417,44.6236244 3.91709804,44.7872981 C3.49207506,44.833266 3.19504591,45.4573151 3.67432714,45.6864582 C5.02800099,46.3355807 6.36289313,47.0216169 7.69291595,47.7174039 C9.02293876,47.0216169 10.3578309,46.3355807 11.7115047,45.6864582 C12.1900904,45.4573151 11.8930612,44.833266 11.4687338,44.7872981 L11.4687338,44.7872981 Z M21.9301424,2.77541687 L20.5270796,1.37060976 L19.1240168,2.77541687 L20.5270796,4.18022397 L21.9301424,2.77541687 Z M18.2489286,30.0852291 C19.2492282,30.0852291 20.0818837,30.3575541 20.7211572,30.8938464 C21.3353884,31.4106371 21.6665029,32.3975541 21.9593583,33.2674619 L22.0442238,33.5174995 C22.2028249,33.9841434 22.3871638,34.4988447 22.6167179,35.0114565 C22.1464798,35.2169191 21.5872024,35.4725285 21.2060034,35.6828665 L20.9875791,35.8033581 C20.2091819,36.2379638 19.3271375,36.7303776 18.5410884,36.7303776 C18.5153505,36.7303776 18.4896126,36.7296811 18.4638747,36.7282882 C17.3321032,36.6823202 16.2789366,36.0443414 15.3342866,34.8324602 C14.6456241,33.9493192 14.0383491,32.7785306 13.5924575,31.4844643 C15.2278569,30.5901796 16.8959504,30.0852291 18.2489286,30.0852291 L18.2489286,30.0852291 Z M18.2489286,29.20766 L18.2489286,29.2069635 C16.3018921,29.20766 14.1691254,30.0873185 12.542769,31.077718 C13.3858588,33.9534981 15.3384603,37.4790973 18.4277026,37.6058573 C18.465266,37.6072503 18.5028294,37.6079467 18.5410884,37.6079467 C19.6387746,37.6079467 20.7058536,36.9623066 21.6296351,36.4510877 C22.2730823,36.0965777 23.508501,35.5825729 23.7714449,35.4739215 L23.7714449,50.4483155 L21.5558995,48.2300157 C21.6059841,48.1046487 21.6352001,47.9688344 21.6352001,47.8253588 C21.6352001,47.2194182 21.1440933,46.7277009 20.5389051,46.7277009 C19.9337169,46.7277009 19.4433058,47.2194182 19.4433058,47.8253588 C19.4433058,47.9792817 19.4753042,48.1248467 19.532345,48.257875 L12.8251902,54.9726719 C12.7918005,54.969886 12.7591064,54.9629211 12.7257167,54.9629211 C12.1198329,54.9629211 11.6294217,55.4546384 11.6294217,56.060579 C11.6294217,56.5690119 11.9772311,56.9931704 12.4467736,57.1171444 L8.20558687,57.1171444 C8.67582506,56.9931704 9.02363438,56.5690119 9.02363438,56.060579 C9.02363438,55.5967211 8.73495265,55.201815 8.32871137,55.0409273 L8.32871137,51.7124329 C8.71408409,51.542491 8.98467973,51.1580321 8.98467973,50.7088003 C8.98467973,50.1028597 8.49357298,49.6118389 7.88768916,49.6118389 C7.28250096,49.6118389 6.79208982,50.1028597 6.79208982,50.7088003 C6.79208982,51.1594251 7.06407671,51.5459734 7.45153628,51.7152188 L7.45153628,55.0757515 C7.08564088,55.2533547 6.83174009,55.6259734 6.83174009,56.060579 C6.83174009,56.5690119 7.1795494,56.9931704 7.64909197,57.1171444 L0.923155478,57.1171444 L0.923155478,44.8130679 C1.5923406,44.4836313 2.31856644,44.2482199 3.06913894,44.0371854 C4.11882745,43.7404834 5.38067963,43.441692 6.15907688,42.6100908 C8.26958379,40.3486091 7.19137492,36.4664104 5.77579101,33.8239522 C4.1431741,34.209804 2.28935046,34.9334503 0.923155478,36.0373766 L0.923155478,35.3144268 C1.84971949,34.0767757 2.51751337,32.5396367 2.92305903,31.1487593 C2.31578397,30.7803196 1.63546895,30.4306849 0.923155478,30.1332864 L0.923155478,27.8265333 C1.59025374,27.5562977 2.2274404,27.2414872 2.80202139,26.9099611 C2.43125666,25.5274414 1.80589551,23.9951779 0.923155478,22.7456866 L0.923155478,21.7894148 C2.2796118,22.917718 4.13760915,23.6671342 5.77579101,24.0724875 C7.21850404,21.445352 8.33775441,17.5736005 6.2495073,15.2912243 C5.48084872,14.4505688 4.22247462,14.1378477 3.17348173,13.8320915 C2.39230202,13.6029484 0.959327647,12.9949184 0.923155478,12.9795958 L0.923155478,1.35737658 L23.7714449,1.35737658 L23.7714449,6.75651622 L20.9326253,9.59956163 C20.8101964,9.55220075 20.6780288,9.52364493 20.5389051,9.52364493 C20.4102157,9.52364493 20.289178,9.5501113 20.1750966,9.59050734 L13.648107,3.05540321 C13.7566235,2.88546125 13.821316,2.68487402 13.821316,2.46826767 C13.821316,1.86232707 13.3309049,1.37060976 12.7257167,1.37060976 C12.1198329,1.37060976 11.6294217,1.86232707 11.6294217,2.46826767 C11.6294217,3.07420826 12.1198329,3.56522909 12.7257167,3.56522909 C12.7848443,3.56522909 12.8425806,3.55687129 12.900317,3.547817 L19.532345,10.1887866 C19.4753042,10.3211185 19.4433058,10.46738 19.4433058,10.6206064 C19.4433058,11.2272434 19.9337169,11.7182643 20.5389051,11.7182643 C21.1440933,11.7182643 21.6352001,11.2272434 21.6352001,10.6206064 C21.6352001,10.4778272 21.6059841,10.342013 21.5558995,10.216646 L23.7714449,7.99834619 L23.7714449,35.3534298 C23.402767,34.6980389 23.127302,33.979268 22.8740968,33.2347272 C22.5221138,32.2004493 22.1555228,30.9551369 21.2846083,30.2217398 C20.4213456,29.4967006 19.3653965,29.2069635 18.2489286,29.20766 L18.2489286,29.20766 Z M23.7714449,57.1171444 L20.5674255,57.1171444 L21.9301424,55.7527334 L20.5270796,54.3486227 L19.1240168,55.7527334 L20.4867337,57.1171444 L13.0039642,57.1171444 C13.4735067,56.9931704 13.821316,56.5690119 13.821316,56.060579 C13.821316,55.8223817 13.7434068,55.6036859 13.6154129,55.4232967 L20.1750966,48.8561543 C20.289178,48.8965504 20.4102157,48.9230167 20.5389051,48.9230167 C20.6780288,48.9230167 20.8101964,48.8944609 20.9326253,48.8471 L23.7714449,51.689449 L23.7714449,57.1171444 Z M0.923155478,37.2241844 C1.97980017,36.1209546 3.65067611,35.326267 5.31320463,34.8512653 C5.9023936,36.0868269 6.2905488,37.3474619 6.41854262,38.4604425 C6.59522975,39.9871342 6.29194003,41.1822998 5.51910774,42.0104186 C4.97026464,42.5961611 3.96926944,42.875451 3.08513817,43.1213097 L2.83123737,43.192351 C2.35752108,43.3253793 1.83441588,43.4827846 1.31061505,43.6840683 C1.19305551,43.3692578 1.05601864,43.0154442 0.923155478,42.6985442 L0.923155478,37.2241844 Z M0.923155478,31.1515452 C1.21740216,31.2838771 1.51164884,31.4238703 1.80659113,31.583365 C1.55755967,32.3021359 1.25774804,32.9805108 0.923155478,33.5920232 L0.923155478,31.1515452 Z M0.923155478,24.4353554 C1.24453128,25.0601011 1.52973492,25.7496197 1.76207154,26.4781413 C1.48173723,26.6230099 1.20209855,26.7511629 0.923155478,26.872351 L0.923155478,24.4353554 Z M0.923155478,15.3629621 C1.10540756,14.9854681 1.29252897,14.5773288 1.4580862,14.1462055 C1.93528058,14.335649 2.51055718,14.5522554 2.92862398,14.6748365 L3.16791678,14.7437883 C4.05413491,14.9987013 5.05791259,15.2884384 5.60258197,15.8839317 C7.16146332,17.5875302 6.52636351,20.5893738 5.32433452,23.0402991 C4.01378903,22.6502684 2.81871623,22.0937781 1.90815145,21.4432625 C1.52208312,21.1674551 1.19792484,20.877718 0.923155478,20.5775336 L0.923155478,15.3629621 Z M6.95618626e-05,58.0413779 L24.6945308,58.0413779 L24.6945308,0.433839536 L6.95618626e-05,0.433839536 L6.95618626e-05,58.0413779 Z" id="Fill-4" fill="#6A5E95" mask="url(#mask-2)"></path>
                </g>
                <g id="Group-9" transform="translate(23.651033, 0.000000)">
                    <mask id="mask-4" fill="white">
                        <use xlink:href="#path-3"></use>
                    </mask>
                    <g id="Clip-8"></g>
                    <path d="M20.3806519,25.3414804 L19.6822508,28.0097084 L19.6502523,28.1322895 L19.5403446,28.1956695 L19.308008,28.3266084 L18.0440689,29.0432899 L19.2669665,29.8296197 L19.4916513,29.9737917 L19.5980809,30.0420471 L19.6231232,30.1660212 L20.1733575,32.8697699 L20.1879655,32.9373288 L20.1698794,33.0048877 L20.0585804,33.4297426 L20.0112784,33.6108283 L19.8283307,33.6477419 L19.399134,33.7354988 L19.3302677,33.7494285 L19.2634884,33.7320164 L16.5985734,33.032747 L16.4754489,33.0007088 L16.4128432,32.8906644 L16.2813713,32.6580389 L15.5655797,31.3925285 L14.7809219,32.6169464 L14.6362333,32.842607 L14.5687583,32.9484725 L14.4442425,32.9735459 L11.7445466,33.5251608 L11.6756804,33.539787 L11.608901,33.5209819 L11.183878,33.4088481 L11.0044084,33.3621837 L10.966845,33.1783121 L10.8791971,32.7485818 L10.8652847,32.6803264 L10.8833708,32.6127675 L11.5810763,29.9438429 L11.6130747,29.8219583 L11.7236781,29.7592748 L11.9553191,29.6276395 L13.2199537,28.9102615 L11.9963606,28.1246282 L11.7723714,27.9811526 L11.6659417,27.9122008 L11.6408995,27.7889232 L11.0906651,25.0851745 L11.0760571,25.0169191 L11.0934476,24.9500567 L11.2054422,24.5245053 L11.2520486,24.3434196 L11.4349963,24.3072025 L11.8648887,24.2187491 L11.9330593,24.2041229 L12.0012299,24.222928 L14.6654492,24.9215009 L14.7885737,24.9535391 L14.8504838,25.0649764 L14.9819557,25.2976019 L15.6984429,26.5624158 L16.4831007,25.337998 L16.6270938,25.1130338 L16.69596,25.0071683 L16.8197801,24.9807019 L19.519476,24.4297835 L19.586951,24.4158539 L19.6551216,24.433266 L20.0787534,24.5447033 L20.2596142,24.5920642 L20.2971776,24.7759358 L20.3848256,25.2063626 L20.3980423,25.2739215 L20.3806519,25.3414804 Z M21.155571,24.600422 L21.0094911,23.8816511 L20.302047,23.6963865 L19.877024,23.5849491 L19.6126889,23.5146043 L19.3441801,23.5696265 L16.6444842,24.1205449 L16.1582468,24.2208385 L15.889738,24.6387286 L15.7450493,24.8636927 L15.6135774,24.6310673 L15.3687197,24.198551 L14.8880472,24.073184 L12.2231322,23.3725217 L11.9581015,23.3028733 L11.6895928,23.3578955 L11.2590048,23.4463489 L10.541822,23.5933069 L10.3567875,24.3016306 L10.2461841,24.7264855 L10.1759266,24.9918457 L10.2308805,25.2606883 L10.7811148,27.964437 L10.8805883,28.4512789 L11.2986551,28.720818 L11.5233399,28.8642936 L11.2916989,28.9952325 L10.8590241,29.2410912 L10.7331171,29.7216647 L10.034716,32.3898928 L9.96515419,32.655253 L10.0194124,32.9247921 L10.1070604,33.3538259 L10.2531403,34.0719003 L10.9612801,34.2578614 L11.3849118,34.3699952 L11.6506381,34.4396436 L11.9198425,34.3846214 L14.6195384,33.833703 L15.1064715,33.7341058 L15.3749802,33.3155193 L15.5189733,33.0905551 L15.6497496,33.3231806 L15.895303,33.7563933 L16.3752798,33.8831533 L19.0408904,34.5824227 L19.3059211,34.650678 L19.5744299,34.5963523 L20.0036266,34.5085954 L20.7208094,34.3616374 L20.9072352,33.6533138 L21.0178385,33.2270659 L21.088096,32.9617057 L21.0324465,32.6942561 L20.4822122,29.9905073 L20.3834343,29.5043619 L19.9646719,29.2348228 L19.7406827,29.0906507 L19.9723237,28.9590154 L20.4049985,28.7138532 L20.5309055,28.2325831 L21.2293066,25.5636586 L21.2981728,25.2982984 L21.243219,25.0308488 L21.155571,24.600422 Z M23.8928303,6.98287334 L22.401424,6.64020348 L22.2817776,6.61234414 L22.3082111,6.49324548 L23.4058973,1.35737658 L23.8928303,1.35737658 L23.8928303,6.98287334 Z M23.8928303,19.8100089 L22.0877,19.3942083 L21.9687492,19.3663489 L21.9944871,19.2465538 L23.3432916,12.9426821 L23.5241524,12.0964548 L22.6817583,11.9035288 L19.959107,11.2787832 L19.7594644,11.2321188 L19.5612131,11.2801762 L16.8420399,11.9216374 L16.001037,12.1208317 L16.1874628,12.9649696 L17.5731351,19.2611799 L17.5995686,19.3802786 L17.4806178,19.4081379 L15.8681738,19.7884179 L14.2522518,19.4178887 L14.1326054,19.3900294 L14.1583433,19.2695377 L15.5064522,12.9670591 L15.687313,12.1222247 L14.8449188,11.9279058 L12.1222675,11.3024636 L11.9233206,11.2564957 L11.7250693,11.3045531 L9.00450486,11.9467108 L8.16350195,12.1445121 L8.34992774,12.9907395 L9.73699128,19.2855568 L9.76272917,19.4046555 L9.64308276,19.4332113 L7.32389026,19.9799508 L6.79313325,20.1053179 L6.67070437,20.6381277 L6.13716489,22.9643824 L6.11003576,23.0834811 L5.9917806,23.0584076 L1.04314969,21.9976634 L1.04314969,17.7101113 L1.98919102,17.912788 L2.95470968,18.1196436 L3.1759164,17.1577999 L3.29764966,16.6263831 L3.82631981,16.5031055 L4.78836037,16.2746589 L4.57480545,15.3121188 L3.18843753,9.0159085 L9.45457012,7.53588119 L10.4152194,7.30743462 L10.2016645,6.34280505 L9.10397833,1.35737658 L14.6779704,1.35737658 L13.6136739,6.3323578 L13.4070751,7.2997733 L14.3691157,7.51916559 L15.8313061,7.85696005 L17.2907139,7.50941482 L18.2513633,7.2830577 L18.038504,6.31912462 L16.9463827,1.35737658 L22.5092449,1.35737658 L21.4498177,6.30867736 L21.243219,7.27539638 L22.2059551,7.49548515 L23.8928303,7.88412291 L23.8928303,19.8100089 Z M23.8928303,37.5821769 L21.9464894,38.0418559 L20.9865357,38.269606 L21.1986994,39.2342356 L22.5864585,45.5290529 L19.8672853,46.1719071 L17.1439384,45.546465 L18.4913517,39.2425934 L18.6979504,38.2758744 L17.7366055,38.0550891 L15.9231277,37.638592 L14.10965,38.0669293 L13.1496963,38.2939829 L13.3625556,39.2572195 L14.7496191,45.5534298 L12.0297503,46.1948911 L9.30709897,45.569449 L10.6559035,39.2669703 L10.861111,38.3002513 L9.89976604,38.0787695 L7.57709544,37.5445667 L7.02894797,35.2231874 L6.80217629,34.2613438 L5.83944012,34.4730748 L1.04314969,35.5331226 L1.04314969,30.7364411 L5.83039707,31.7630577 L6.79661135,31.9713062 L7.01642683,31.0073732 L7.43310239,29.1902479 L7.00599255,27.376605 L6.77852526,26.4147614 L5.8164847,26.6285818 L1.04314969,27.6816647 L1.04314969,22.8954305 L5.80744166,23.9164752 L6.77156908,24.1240273 L6.99208018,23.1607907 L7.52561967,20.834536 L9.84481216,20.2864036 L10.8054615,20.0593499 L10.5932978,19.0954169 L9.20623427,12.8005995 L11.9261031,12.1577453 L14.64945,12.7838839 L13.3006455,19.0870591 L13.0940468,20.0530816 L14.0560873,20.2738668 L15.8702607,20.6896675 L17.6816516,20.2627231 L18.6416053,20.036366 L18.4294416,19.0710399 L17.0430737,12.7755261 L19.7622469,12.1333684 L22.4855938,12.759507 L21.1374849,19.0626821 L20.9301906,20.0287047 L21.8922311,20.2494899 L23.8928303,20.710562 L23.8928303,37.5821769 Z M23.8928303,50.4267245 L22.3374271,50.7923783 L21.3788646,51.0201284 L21.5903327,51.9854544 L22.7207129,57.1178409 L17.0841152,57.1178409 L18.1790189,51.9965982 L18.3856177,51.0291827 L17.4242727,50.8083974 L15.9620824,50.4712994 L14.5019789,50.8181482 L13.5420252,51.0445053 L13.7534932,52.0091349 L14.8796998,57.1178409 L9.2521451,57.1178409 L10.3421795,52.0188856 L10.5487782,51.0535596 L9.58673765,50.8320778 L3.31156203,49.3910536 L4.65967093,43.087182 L4.86696528,42.1211594 L3.9042291,41.9003742 L3.37555894,41.7798826 L3.25034759,41.2477692 L3.02427154,40.2866221 L2.0594485,40.5004425 L1.04314969,40.7240137 L1.04314969,36.4315862 L6.02795276,35.3304459 L6.14690355,35.3053725 L6.17542391,35.4244712 L6.72357139,37.7472434 L6.84947836,38.2786603 L7.38093099,38.4005449 L9.70290596,38.9354442 L9.82394361,38.9633035 L9.79820572,39.0837952 L8.45009682,45.3855773 L8.26923598,46.2318047 L9.11163013,46.4254271 L11.8335858,47.0508692 L12.0325327,47.0961407 L12.2307841,47.0494763 L14.9506529,46.4066221 L15.7916558,46.2081243 L15.6059256,45.3632899 L14.2188621,39.0684725 L14.1924286,38.9486774 L14.312075,38.9201215 L15.9252146,38.5398416 L17.540441,38.9110673 L17.6593918,38.9382301 L17.6343495,39.0587217 L16.2862406,45.3625934 L16.1053798,46.2081243 L16.947774,46.4017467 L19.6704253,47.0271888 L19.8700678,47.0731567 L20.0683191,47.0257958 L22.7874923,46.3836381 L23.6284952,46.1851403 L23.4420694,45.3403059 L22.0550059,39.0447921 L22.0285724,38.9249969 L22.1475232,38.8964411 L23.8928303,38.4848194 L23.8928303,50.4267245 Z M23.8928303,57.1178409 L23.6187566,57.1178409 L22.4473348,51.7967074 L22.4202057,51.6762158 L22.5398521,51.64766 L23.8928303,51.3279741 L23.8928303,57.1178409 Z M15.7777434,57.1178409 L14.6091041,51.8203878 L14.5833662,51.7012892 L14.7030126,51.6727334 L15.9648648,51.3732455 L17.2274126,51.6643756 L17.3477547,51.6915384 L17.3220168,51.81203 L16.1874628,57.1178409 L15.7777434,57.1178409 Z M1.04314969,57.1178409 L1.04314969,41.6231738 L2.24865677,41.3571171 L2.36830317,41.3306507 L2.39612792,41.4497494 L2.52203489,41.9818628 L2.64794186,42.5125831 L3.17939449,42.6344677 L3.70876027,42.7556559 L3.82840667,42.7835152 L3.80266878,42.9026139 L2.45455988,49.2078785 L2.27369904,50.0534094 L3.1160932,50.2470318 L9.3905732,51.688056 L9.51091522,51.7159153 L9.48517733,51.8343175 L8.35549269,57.1178409 L1.04314969,57.1178409 Z M1.04314969,28.5808249 L6.00430173,27.4852564 L6.12464375,27.45879 L6.15316412,27.5785852 L6.53227627,29.1930338 L6.16220716,30.8116613 L6.13507803,30.9300635 L6.01543163,30.9042936 L1.04314969,29.838674 L1.04314969,28.5808249 Z M1.04314969,1.35737658 L8.20593468,1.35737658 L9.34605361,6.53155207 L9.37248712,6.65274018 L9.25284071,6.68059952 L2.98740375,8.16062684 L2.14640083,8.35912462 L2.33282662,9.20395903 L3.71919455,15.5001693 L3.74493243,15.619268 L3.62459041,15.6478238 L3.09661587,15.7717979 L2.56585886,15.8971649 L2.44342999,16.4299747 L2.32169673,16.9613916 L2.29387198,17.0811868 L2.17283434,17.0554169 L1.04314969,16.8123441 L1.04314969,1.35737658 Z M16.0476435,1.35737658 L17.1821974,6.50787163 L17.2086309,6.6269703 L17.0896802,6.65482963 L15.8285236,6.95571048 L14.5659758,6.6645804 L14.4456338,6.63672107 L14.4713716,6.51622943 L15.5746228,1.35737658 L16.0476435,1.35737658 Z M0.120759393,58.0413779 L24.8152206,58.0413779 L24.8152206,0.433839536 L0.120759393,0.433839536 L0.120759393,58.0413779 Z" id="Fill-7" fill="#BF6C54" mask="url(#mask-4)"></path>
                </g>
                <path d="M63.8139659,42.3162445 L65.2170287,43.7210516 L66.6193958,42.3162445 L65.2170287,40.9114374 L63.8139659,42.3162445 Z M50.8239837,42.3162445 L52.2270464,43.7210516 L53.6294136,42.3162445 L52.2270464,40.9114374 L50.8239837,42.3162445 Z M53.6294136,29.4131922 L52.2270464,28.0083851 L50.8239837,29.4131922 L52.2270464,30.8179993 L53.6294136,29.4131922 Z M63.7812718,16.3583066 L65.1843346,17.7631137 L66.5867017,16.3583066 L65.1843346,14.9534995 L63.7812718,16.3583066 Z M50.8239837,16.3583066 L52.2270464,17.7631137 L53.6294136,16.3583066 L52.2270464,14.9534995 L50.8239837,16.3583066 Z M53.6294136,2.76712871 L52.2270464,1.36232161 L50.8239837,2.76712871 L52.2270464,4.17193581 L53.6294136,2.76712871 Z M71.3148215,7.96498464 L66.2145458,2.85836804 C66.2375012,2.79986343 66.2590654,2.73926938 66.2722821,2.6751929 C66.3967978,2.08248549 66.0176857,1.50092182 65.4250186,1.37625128 C65.365891,1.36441106 65.3074591,1.36023216 65.2490271,1.35744623 L71.3148215,1.35744623 L71.3148215,7.96498464 Z M71.3148215,14.4297439 L66.2082852,9.31755548 C66.2465442,9.20542165 66.2715865,9.08771594 66.2715865,8.96304541 C66.2715865,8.35710481 65.7811754,7.8653875 65.1759872,7.8653875 C64.5707989,7.8653875 64.0803878,8.35710481 64.0803878,8.96304541 C64.0803878,9.10443155 64.1089082,9.23815637 64.1576015,9.36213042 L58.1474566,15.3797474 C58.0312882,15.3372619 57.9074681,15.3107955 57.7766918,15.3107955 C57.1715036,15.3107955 56.6803969,15.8018163 56.6803969,16.4077569 C56.6803969,17.0136975 57.1715036,17.5054148 57.7766918,17.5054148 C57.9311192,17.5054148 58.0778947,17.4726801 58.2107579,17.414872 L64.1847306,23.3955753 C64.1297767,23.5258177 64.0998651,23.6692933 64.0998651,23.8190372 C64.0998651,24.4256743 64.5902763,24.9166951 65.1954645,24.9166951 C65.8006527,24.9166951 66.2917594,24.4256743 66.2917594,23.8190372 C66.2917594,23.679044 66.2632391,23.5467122 66.2152414,23.4234346 L71.3148215,18.316818 L71.3148215,40.3841994 L66.215937,35.2789758 C66.2708909,35.1487334 66.3008025,35.0052578 66.3008025,34.8555138 C66.3008025,34.2495732 65.8103913,33.7578559 65.2052031,33.7578559 C64.6000149,33.7578559 64.1096038,34.2495732 64.1096038,34.8555138 C64.1096038,34.995507 64.1381242,35.1285353 64.1854262,35.2518129 L58.1884981,41.2561967 C58.126588,41.2297303 58.0618955,41.2081393 57.9937248,41.1942096 C57.4010578,41.0695391 56.8202162,41.4491226 56.6963961,42.0425265 C56.5718804,42.6352339 56.9516881,43.2167975 57.5436596,43.3414681 C57.7502583,43.3846501 57.9540746,43.3637555 58.1391091,43.2968931 L64.1923824,49.357692 C64.1541234,49.4691294 64.1290811,49.5868351 64.1290811,49.7122021 C64.1290811,50.3181427 64.6194923,50.8091635 65.2246805,50.8091635 C65.8298687,50.8091635 66.3209754,50.3181427 66.3209754,49.7122021 C66.3209754,49.570816 66.292455,49.4370912 66.2437617,49.3131171 L71.3148215,44.2350563 L71.3148215,49.3862479 L65.6211831,55.0876613 C65.559273,55.0618914 65.4938849,55.039604 65.4257142,55.0256743 C65.2052031,54.9790099 64.9860833,55.0033868 64.7906144,55.0820895 L58.827076,49.1104404 C58.8813342,48.980198 58.9119414,48.8374189 58.9119414,48.6869785 C58.9119414,48.0810379 58.4208347,47.5900171 57.8156465,47.5900171 C57.2104583,47.5900171 56.7200471,48.0810379 56.7200471,48.6869785 C56.7200471,49.2929191 57.2104583,49.7846364 57.8156465,49.7846364 C57.9422491,49.7846364 58.0611998,49.7588665 58.1745857,49.7198634 L64.1749919,55.7277296 C64.1576015,55.775787 64.1395154,55.8224513 64.1283855,55.8739911 C64.0170865,56.405408 64.3120288,56.9249846 64.8010487,57.1172141 L60.1619681,57.1172141 C60.5682094,56.9563264 60.8561955,56.5621168 60.8561955,56.0982588 C60.8561955,55.4923182 60.3657844,55.0012974 59.7605961,55.0012974 C59.6054732,55.0012974 59.4593933,55.0340321 59.3258345,55.0918402 L53.2649094,49.02338 C53.2996904,48.9161215 53.3226458,48.8053807 53.3226458,48.6869785 C53.3226458,48.0810379 52.8322346,47.5900171 52.2270464,47.5900171 C51.6218582,47.5900171 51.1307515,48.0810379 51.1307515,48.6869785 C51.1307515,48.8583134 51.1731842,49.0178081 51.2434417,49.1619802 L48.4665321,51.9423421 L48.4665321,33.7501946 L51.1926615,36.4804097 C51.1557937,36.5904541 51.1307515,36.7067668 51.1307515,36.8300444 C51.1307515,37.435985 51.6218582,37.9270058 52.2270464,37.9270058 C52.8322346,37.9270058 53.3226458,37.435985 53.3226458,36.8300444 C53.3226458,36.6691567 53.2864736,36.5173233 53.2245635,36.3801161 L59.1825371,30.4147354 C59.3119221,30.4683646 59.454524,30.4990099 59.6033863,30.4990099 C60.2085745,30.4990099 60.6996813,30.0079891 60.6996813,29.4020485 C60.6996813,28.7954114 60.2085745,28.3043906 59.6033863,28.3043906 C59.4642626,28.3043906 59.3327907,28.3329464 59.2103618,28.3803073 L53.2315197,22.3940321 C53.2607357,22.3271697 53.2836911,22.2554319 53.2996904,22.1809082 C53.4235105,21.5882008 53.0443983,21.0066371 52.4517312,20.8819665 C51.8590642,20.757296 51.2782226,21.137576 51.1544025,21.7302834 C51.1126654,21.9294776 51.1321427,22.1251895 51.1919659,22.3048822 L48.4665321,25.0344008 L48.4665321,6.64514851 L51.2385724,9.42063503 C51.1710974,9.56271765 51.1307515,9.71942643 51.1307515,9.88727893 C51.1307515,10.4932195 51.6218582,10.9849368 52.2270464,10.9849368 C52.8322346,10.9849368 53.3226458,10.4932195 53.3226458,9.88727893 C53.3226458,9.76539433 53.2982991,9.65047456 53.2621269,9.54112666 L59.3279214,3.46779105 C59.3842665,3.49007853 59.4420028,3.51097303 59.5039129,3.52420621 C60.0958843,3.64818027 60.6767259,3.26859679 60.8012416,2.6751929 C60.9257573,2.08248549 60.5466452,1.50092182 59.9539781,1.37625128 C59.8948505,1.36441106 59.8364186,1.36023216 59.7779866,1.35744623 L65.1537274,1.35744623 C64.6647075,1.37834073 64.2327283,1.72379652 64.1276899,2.22456811 C64.0824747,2.44187095 64.1054301,2.65638785 64.1798613,2.84792079 L58.1488478,8.88643223 C58.0292014,8.84116081 57.8998163,8.81260498 57.7634751,8.81260498 C57.1582869,8.81260498 56.6678757,9.30432229 56.6678757,9.91026289 C56.6678757,10.5162035 57.1582869,11.0072243 57.7634751,11.0072243 C58.3693589,11.0072243 58.85977,10.5162035 58.85977,9.91026289 C58.85977,9.77026972 58.8312497,9.63724138 58.783252,9.51396381 L64.8156567,3.47336292 C64.8678281,3.49286446 64.9193039,3.512366 64.9749534,3.52420621 C65.1829433,3.56738819 65.3881508,3.5457972 65.5731854,3.47823831 L71.3148215,9.22701263 L71.3148215,14.4297439 Z M71.3148215,17.05479 L65.5815328,22.795903 C65.4611908,22.7499351 65.3325013,22.7220758 65.1954645,22.7220758 C65.0695575,22.7220758 64.9506067,22.7478457 64.8379165,22.7868488 L58.812468,16.7539092 C58.8479445,16.6445613 58.8722912,16.5296415 58.8722912,16.4077569 C58.8722912,16.2621919 58.8430752,16.1242882 58.7915994,15.9968317 L64.7933969,9.98757255 C64.9130433,10.032844 65.0410371,10.0600068 65.1759872,10.0600068 C65.327632,10.0600068 65.4723207,10.0293616 65.603097,9.97364288 L71.3148215,15.6924684 L71.3148215,17.05479 Z M71.3148215,42.9730283 L65.6079663,48.6869785 C65.4883199,48.6417071 65.3603261,48.6145442 65.2246805,48.6145442 C65.0737312,48.6145442 64.9290425,48.6451895 64.7975706,48.7009082 L58.7825564,42.6784158 C58.8062074,42.6192147 58.8277716,42.5579242 58.8416839,42.4931512 C58.8834211,42.2897781 58.8639437,42.0891909 58.7992512,41.9067122 L64.8191348,35.8793445 C64.9394768,35.9246159 65.0688619,35.9531717 65.2052031,35.9531717 C65.3318057,35.9531717 65.4507565,35.9274018 65.5634467,35.8883988 L71.3148215,41.6469239 L71.3148215,42.9730283 Z M71.3148215,57.1172141 L65.6079663,57.1172141 C65.9369939,56.9855787 66.1950684,56.6972346 66.2729777,56.3246159 C66.3161061,56.1212427 66.2952375,55.921352 66.2319362,55.7381769 L71.3148215,50.6489723 L71.3148215,57.1172141 Z M52.3049557,57.1172141 L53.6294136,55.7911096 L52.2270464,54.3863025 L50.8239837,55.7911096 L52.1477459,57.1172141 L48.4665321,57.1172141 L48.4665321,53.2050666 L51.928626,49.737972 C52.0239258,49.7651349 52.1227036,49.7846364 52.2270464,49.7846364 C52.3842562,49.7846364 52.5338142,49.7498122 52.6694599,49.6892182 L58.7255156,55.752803 C58.6886478,55.8621509 58.6643012,55.9770707 58.6643012,56.0982588 C58.6643012,56.5621168 58.9529829,56.9563264 59.3585286,57.1172141 L52.3049557,57.1172141 Z M48.4665321,26.3013042 L51.7985454,22.9651485 C51.8625423,22.9923114 51.9307129,23.0145988 52.0023616,23.0299215 C52.1971348,23.0703175 52.38843,23.0522089 52.5651171,22.9944008 L58.580827,29.0175896 C58.5356117,29.1373848 58.507787,29.2655377 58.507787,29.4020485 C58.507787,29.5274155 58.5328293,29.6458177 58.5717839,29.7579515 L52.5512047,35.7867122 C52.4482532,35.754674 52.3404323,35.7323865 52.2270464,35.7323865 C52.074706,35.7323865 51.9307129,35.7630318 51.799241,35.8194469 L48.4665321,32.4825947 L48.4665321,26.3013042 Z M48.4665321,1.35744623 L59.6826869,1.35744623 C59.1929713,1.37834073 58.7609922,1.72379652 58.6566494,2.22456811 C58.6121298,2.43490611 58.6343896,2.64315466 58.7032558,2.83050871 L52.6611125,8.88016388 C52.5275537,8.82235575 52.3807781,8.78962103 52.2270464,8.78962103 C52.1192255,8.78962103 52.0169696,8.81051553 51.9181918,8.83907136 L48.4665321,5.38242404 L48.4665321,1.35744623 Z M47.5427506,58.0414476 L72.2379074,58.0414476 L72.2379074,0.434605667 L47.5427506,0.434605667 L47.5427506,58.0414476 Z" id="Fill-10" fill="#A25A79"></path>
                <path d="M83.5636917,23.1214394 C81.7196067,17.8323441 81.5157904,12.1775951 82.9835457,6.69278798 C83.149103,6.07291772 83.3438762,5.44120724 83.5636917,4.80462137 C83.7842028,5.44120724 83.978976,6.07222124 84.1445332,6.69278798 C85.6122885,12.1782916 85.4084723,17.8330406 83.5636917,23.1214394 L83.5636917,23.1214394 Z M83.9720198,3.37613383 L83.5636917,2.33001571 L83.1553635,3.37613383 C82.7498179,4.41598361 82.4068779,5.45513691 82.1362822,6.46573438 C80.5175777,12.5146931 80.8702563,18.7649355 83.1560591,24.5401762 L83.5636917,25.5702752 L83.9713242,24.5401762 C86.2578226,18.7649355 86.6105012,12.5146931 84.9917967,6.46573438 C84.7205054,5.45444042 84.3782611,4.41528713 83.9720198,3.37613383 L83.9720198,3.37613383 Z M84.1445332,51.781733 C83.978976,52.4016033 83.7842028,53.0340102 83.5636917,53.6698996 C83.3438762,53.0333138 83.149103,52.4016033 82.9835457,51.781733 C81.5157904,46.2969259 81.7196067,40.6421769 83.5636917,35.3530816 C85.4084723,40.6421769 85.6122885,46.2969259 84.1445332,51.781733 L84.1445332,51.781733 Z M83.5636917,32.9042458 L83.1560591,33.9343448 C80.8702563,39.7095855 80.5175777,45.9598279 82.1362822,52.0087866 C82.4068779,53.0186876 82.7498179,54.0578409 83.1553635,55.0976907 L83.5636917,56.1438088 L83.9720198,55.0976907 C84.3782611,54.0592339 84.7212011,53.0200806 84.9917967,52.0087866 C86.6105012,45.9598279 86.2578226,39.7095855 83.9713242,33.9343448 L83.5636917,32.9042458 Z M95.0859186,2.74581632 C93.815719,2.19002253 92.5037822,1.72546808 91.1570646,1.35772482 L95.0859186,1.35772482 L95.0859186,2.74581632 Z M95.0859186,7.04590509 C92.7660305,5.58189689 90.6847395,3.80377467 88.8900435,1.72616456 C91.0408963,2.14266166 93.1166222,2.81267873 95.0859186,3.70696347 L95.0859186,7.04590509 Z M95.0859186,11.9428802 C94.6873291,11.7360246 94.2915221,11.5249901 93.9033669,11.3007224 C92.420308,10.4433513 90.9831599,9.44877296 89.6308773,8.34345374 L88.7321381,7.60936019 L88.9206507,8.75507545 C89.4861886,12.1845599 89.4896667,15.6690666 88.931085,19.1096948 L88.7453548,20.2519276 L89.640616,19.52062 C91.3358386,18.134618 93.1604462,16.9401489 95.0859186,15.9351233 L95.0859186,19.7915521 C92.1719722,21.5480833 89.5814884,23.8081721 87.4285487,26.5286364 L86.7384951,27.3992407 L87.8368769,27.2355671 C90.3584944,26.8587695 92.7910727,26.1490529 95.0859186,25.1454203 L95.0859186,33.3297972 C92.7931596,32.326861 90.3633637,31.6171444 87.8445287,31.2403469 L86.74406,31.0752803 L87.4368962,31.9472776 C89.5863577,34.6531157 92.1824064,36.9104186 95.0859186,38.6627709 L95.0859186,42.5178068 C93.1555769,41.5120847 91.3302736,40.319705 89.6378335,38.9399713 L88.7425723,38.2100567 L88.9283025,39.3508966 C89.4903624,42.7991861 89.4868843,46.2906576 88.9192595,49.7291963 L88.7307468,50.8742151 L89.6294861,50.140818 C91.3274911,48.754816 93.1555769,47.5582574 95.0859186,46.5511424 L95.0859186,50.4040888 C92.1872758,52.1536552 89.5954008,54.4074756 87.4473304,57.1084384 L87.4403743,57.1174927 L79.6877047,57.1174927 L79.6800529,57.1084384 C77.5806759,54.4687661 75.0569715,52.2567347 72.2376292,50.5238839 L72.2376292,46.652829 C74.0963222,47.639746 75.8583241,48.8014804 77.4985929,50.140818 L78.3973321,50.8749116 L78.2088195,49.7291963 C77.6411947,46.2906576 77.6384122,42.7984896 78.1997764,39.3502001 L78.3862022,38.2086637 L77.4902454,38.9385784 C75.8555417,40.2723441 74.0963222,41.4305961 72.2376292,42.4154237 L72.2376292,38.5429758 C75.0625364,36.807339 77.5904145,34.5918252 79.6911828,31.9472776 L80.3833233,31.0752803 L79.2835503,31.2403469 C76.8356683,31.6060007 74.4740431,32.287858 72.2376292,33.2462192 L72.2376292,25.2283018 C74.4761299,26.1873595 76.8412333,26.8699133 79.2912021,27.2355671 L80.3895839,27.3992407 L79.6995302,26.5286364 C77.5945882,23.8687661 75.0722751,21.6490734 72.2376292,19.9092578 L72.2376292,16.0368098 C74.0921485,17.0209409 75.8499767,18.1819788 77.487463,19.52062 L78.3827241,20.2519276 L78.196994,19.1096948 C77.6384122,15.6690666 77.6418903,12.1845599 78.2074282,8.75507545 L78.3959409,7.60936019 L77.4972016,8.34345374 C76.144919,9.44877296 74.7077709,10.4433513 73.224712,11.3007224 C72.9005537,11.4880765 72.5701349,11.6663762 72.2376292,11.8411936 L72.2376292,7.95760191 C75.0841006,6.20385661 77.587632,3.9960041 79.6758792,1.36608262 L79.6828353,1.35772482 L87.4452436,1.35772482 L87.4521998,1.36608262 C89.5884446,4.05659816 92.1580598,6.30902561 95.0859186,8.08157596 L95.0859186,11.9428802 Z M95.0859186,14.9440273 C93.284962,15.8529382 91.5674796,16.9227368 89.9557312,18.153423 C90.3160617,15.3445053 90.3132792,12.5146931 89.948775,9.71274018 C91.0777641,10.5749867 92.2568376,11.3627095 93.4651272,12.0612823 C93.994493,12.3670386 94.5377711,12.6525968 95.0859186,12.9291007 L95.0859186,14.9440273 Z M95.0859186,24.1835766 C93.1089704,25.0813438 91.0235058,25.7541468 88.8615231,26.1699474 C90.6743053,24.0658709 92.7695086,22.2759085 95.0859186,20.8181687 L95.0859186,24.1835766 Z M95.0859186,37.6312789 C92.7799428,36.1798074 90.6826527,34.3968098 88.8747399,32.306663 C91.0311576,32.7231601 93.1124485,33.3945702 95.0859186,34.2909443 L95.0859186,37.6312789 Z M95.0859186,45.5600464 C93.2814839,46.4710468 91.5619146,47.5422383 89.9473838,48.7722281 C90.3139748,45.9619174 90.3160617,43.1230509 89.95434,40.3057753 C91.5633059,41.5308897 93.2814839,42.5985988 95.0859186,43.5082062 L95.0859186,45.5600464 Z M95.0859186,54.766861 C93.115231,55.6618423 91.0388094,56.3325558 88.8858698,56.7490529 C90.6923913,54.6637815 92.7862034,52.8849628 95.0859186,51.4355807 L95.0859186,54.766861 Z M95.0859186,57.1174927 L91.1542821,57.1174927 C92.5016954,56.7497494 93.8150233,56.2844985 95.0859186,55.7280082 L95.0859186,57.1174927 Z M72.2376292,54.8574039 L72.2376292,51.5609478 C74.4608263,52.9873459 76.4871634,54.7236791 78.2415136,56.7490529 C76.1602226,56.3464855 74.1498848,55.7071137 72.2376292,54.8574039 L72.2376292,54.8574039 Z M72.2376292,57.1174927 L72.2376292,55.8115862 C73.4493968,56.3311629 74.6980323,56.767858 75.9779705,57.1174927 L72.2376292,57.1174927 Z M72.2376292,43.411395 C73.9718064,42.5226821 75.623205,41.4863148 77.1744346,40.3050789 C76.8120173,43.1223544 76.8141041,45.9612209 77.1806951,48.7722281 C75.6245963,47.5861168 73.9718064,46.5469635 72.2376292,45.6568576 L72.2376292,43.411395 Z M72.2376292,34.2004015 C74.1533629,33.3486023 76.1678744,32.7092305 78.2533391,32.306663 C76.496902,34.3376087 74.4663913,36.0774244 72.2376292,37.5066084 L72.2376292,34.2004015 Z M72.2376292,20.9421427 C74.4761299,22.3768986 76.5059451,24.1257685 78.2665558,26.1699474 C76.1762219,25.7680765 74.1575366,25.1273117 72.2376292,24.2741195 L72.2376292,20.9421427 Z M72.2376292,12.8322895 C72.7189973,12.5857344 73.1968873,12.3308214 73.6629518,12.0612823 C74.8712413,11.3627095 76.0503149,10.5749867 77.1793039,9.71274018 C76.8147998,12.5146931 76.8120173,15.3438088 77.1723477,18.1527265 C75.6190313,16.9673117 73.9683283,15.9288549 72.2376292,15.041535 L72.2376292,12.8322895 Z M72.2376292,3.6171171 C74.1491892,2.76740731 76.1581358,2.12873199 78.2387311,1.72616456 C76.4934239,3.74527006 74.4782168,5.48090679 72.2376292,6.92123455 L72.2376292,3.6171171 Z M72.2376292,1.35772482 L75.9751881,1.35772482 C74.696641,1.70735951 73.4487012,2.14405463 72.2376292,2.66293479 L72.2376292,1.35772482 Z M71.3152389,58.0417262 L96.0097001,58.0417262 L96.0097001,0.434187777 L71.3152389,0.434187777 L71.3152389,58.0417262 Z" id="Fill-12" fill="#F6AA13"></path>
                <g id="Group-16" transform="translate(94.604133, 0.000000)">
                    <mask id="mask-6" fill="white">
                        <use xlink:href="#path-5"></use>
                    </mask>
                    <g id="Clip-15"></g>
                    <path d="M17.8325313,57.1171444 C19.6181843,56.8016374 21.2904515,56.1525149 22.7811622,55.2359426 C23.266704,55.3571308 23.759202,55.4581209 24.2537868,55.5507532 L24.2537868,57.1171444 L17.8325313,57.1171444 Z M23.8044172,4.01724684 C23.9532796,3.9852086 24.1042288,3.95874223 24.2537868,3.93018641 L24.2537868,4.36479208 C24.1070113,4.24638989 23.9567577,4.13007716 23.8044172,4.01724684 L23.8044172,4.01724684 Z M21.5380917,17.2553076 C20.3889297,15.8804493 19.1222082,14.4763387 17.7421009,13.0973015 C16.2319128,11.5880219 14.7001606,10.2222178 13.2296228,9.00685422 C15.9773164,6.83243291 19.1757709,5.20475111 22.6587333,4.28957187 C23.22288,4.65940457 23.7550283,5.07311574 24.2537868,5.52304404 L24.2537868,15.9069157 C23.2973112,16.2628187 22.3860508,16.711354 21.5380917,17.2553076 L21.5380917,17.2553076 Z M22.1008472,17.9364684 C22.7783797,17.5088276 23.5011275,17.1494421 24.2537868,16.8499543 L24.2537868,20.7230987 C23.5943404,19.8253315 22.8785488,18.8913472 22.1008472,17.9364684 L22.1008472,17.9364684 Z M23.976235,25.6959904 C22.2622307,24.5669908 20.3214547,23.1775063 18.3006826,21.527537 C19.150033,20.3358539 20.1872003,19.2890393 21.3711432,18.4295787 C22.4486565,19.7494148 23.4058277,21.0267654 24.2537868,22.223324 L24.2537868,25.441774 C24.1605739,25.5260485 24.0722304,25.6158948 23.976235,25.6959904 L23.976235,25.6959904 Z M24.0207546,31.7742014 C22.533522,30.6284862 20.8160396,29.7690256 18.9483036,29.2807907 C20.8195177,28.7925558 22.5397825,27.9296128 24.029102,26.7804152 C24.1063157,26.8298655 24.17866,26.8758334 24.2537868,26.9238907 L24.2537868,31.6244575 C24.1751819,31.6753008 24.1007507,31.7226617 24.0207546,31.7742014 L24.0207546,31.7742014 Z M21.364187,40.1549867 C20.1788529,39.2934367 19.1409899,38.2431396 18.2916396,37.049367 C20.3325846,35.3778068 22.2858817,33.9764821 23.9678876,32.8593226 C24.067361,32.9422042 24.1584871,33.03414 24.2537868,33.1212004 L24.2537868,36.3417398 C23.3988715,37.5529245 22.4403091,38.8344541 21.364187,40.1549867 L21.364187,40.1549867 Z M22.0959778,40.6494899 C22.8736795,39.6932182 23.5908623,38.7557515 24.2537868,37.850323 L24.2537868,41.7394865 C23.4990406,41.4386057 22.7749016,41.0778272 22.0959778,40.6494899 L22.0959778,40.6494899 Z M7.49285603,53.8833718 C8.92930849,52.9166528 10.67392,51.665072 12.5430473,50.1550959 C15.191963,52.2814599 18.2526849,53.9119276 21.5840025,54.9085954 C19.7232227,55.894816 17.6043684,56.4554851 15.356129,56.4554851 C12.4185315,56.4554851 9.70144517,55.4992134 7.49285603,53.8833718 L7.49285603,53.8833718 Z M3.25723422,56.5084179 C4.02311032,56.0772946 5.23418235,55.366185 6.71654564,54.3973766 C8.49245999,55.7603947 10.597402,56.7138805 12.8894653,57.1171444 L2.14285318,57.1171444 C2.38910217,56.9917774 2.74038958,56.7988515 3.25723422,56.5084179 L3.25723422,56.5084179 Z M4.07597734,51.7611868 C3.11254554,53.245393 2.4051014,54.4579706 1.97660033,55.2254954 C1.71226525,55.6984076 1.53001317,56.0306302 1.40549743,56.2730065 L1.40549743,45.9197801 C1.84582402,48.0844507 2.77517051,50.0722144 4.07597734,51.7611868 L4.07597734,51.7611868 Z M1.40549743,18.3292851 C1.7477418,20.0126856 2.3863197,21.5888276 3.26627726,23.002689 C2.77656175,25.0204015 2.51640038,27.1279604 2.51640038,29.2947204 C2.51640038,31.4545155 2.77517051,33.5551096 3.26071231,35.5686432 C2.38423284,36.9783257 1.74704618,38.5530748 1.40549743,40.2329928 L1.40549743,18.3292851 Z M1.92651578,3.36464186 C2.35779933,4.13425606 3.07150404,5.35170912 4.04328326,6.84218368 C2.7598669,8.52279822 1.84234593,10.4952393 1.40549743,12.6411048 L1.40549743,2.41742438 C1.52792631,2.64935336 1.6955704,2.95371663 1.92651578,3.36464186 L1.92651578,3.36464186 Z M6.67967785,4.19276067 C5.19174961,3.22464869 3.97650387,2.51423558 3.20784529,2.08241584 C2.48231507,1.676366 2.08442121,1.4618491 1.84443279,1.35737658 L13.453612,1.35737658 C10.9271252,1.6972605 8.6086283,2.70367907 6.67967785,4.19276067 L6.67967785,4.19276067 Z M12.5353954,8.4399167 C10.6551383,6.92715466 8.90078813,5.67278798 7.45598824,4.704676 C9.67083795,3.0728153 12.4025323,2.10748925 15.356129,2.10748925 C17.6175851,2.10748925 19.748265,2.67373028 21.6166966,3.67039809 C18.2693798,4.66706589 15.1947455,6.30449846 12.5353954,8.4399167 L12.5353954,8.4399167 Z M17.6224545,20.9689573 C16.282693,19.846226 14.9178892,18.6134503 13.5697803,17.2664513 C12.0435931,15.7418491 10.6641813,14.1970488 9.43154514,12.7016989 C10.3775865,11.5726992 11.4175363,10.5258846 12.5409604,9.57309525 C14.0421054,10.8072639 15.5919437,12.1897835 17.1223047,13.7192612 C18.4613705,15.0572059 19.6912243,16.4181345 20.809779,17.7525968 C19.5854902,18.6496675 18.5086726,19.7354851 17.6224545,20.9689573 L17.6224545,20.9689573 Z M15.8277584,28.8322554 C15.9091458,26.4307805 16.6235461,24.1860143 17.8102715,22.26372 C19.7378307,23.8328972 21.5944368,25.168056 23.2507048,26.2705893 C21.2271502,27.7589744 18.7716164,28.6922622 16.1094839,28.8406132 C16.0162711,28.8364343 15.9216669,28.8364343 15.8277584,28.8322554 L15.8277584,28.8322554 Z M15.8270628,29.729326 C15.9209713,29.7258436 16.0162711,29.7258436 16.1094839,29.7209682 C18.7695296,29.8700157 21.2222808,30.8012141 23.2451398,32.2882062 C21.6146098,33.3809887 19.7489606,34.7265947 17.8033153,36.314577 C16.6158943,34.3874073 15.9042765,32.1370693 15.8270628,29.729326 L15.8270628,29.729326 Z M9.4412838,45.9002786 C10.6787893,44.3916955 12.0644616,42.832269 13.5983007,41.2930406 C14.931106,39.9557924 16.2861711,38.7285886 17.6154983,37.6107327 C18.502412,38.8469908 19.5792297,39.9348979 20.8049097,40.8326651 C19.6926155,42.1615555 18.473196,43.5148228 17.1410864,44.850678 C15.6072473,46.3899065 14.0518441,47.7807839 12.5479166,49.0219174 C11.4265794,48.0712175 10.3873251,47.0264923 9.4412838,45.9002786 L9.4412838,45.9002786 Z M5.16044678,51.709647 C6.16561569,50.1885271 7.40799056,48.4382643 8.88061519,46.5939761 C9.79257121,47.6672571 10.7873058,48.6681038 11.8557761,49.5853725 C10.0214297,51.0598279 8.27960069,52.3044438 6.76454333,53.3122554 C6.18578863,52.8240205 5.64946667,52.2877282 5.16044678,51.709647 L5.16044678,51.709647 Z M4.66238384,52.4743858 C5.07975502,52.9493875 5.52703779,53.3958334 6.00214531,53.811634 C4.60534311,54.7135801 3.44574686,55.390562 2.64926354,55.8349184 C3.09098136,55.0360519 3.76434019,53.8743175 4.66238384,52.4743858 L4.66238384,52.4743858 Z M3.57930564,36.7652018 C4.55943228,40.1320027 6.18509301,43.2257822 8.31229477,45.903761 C6.80349797,47.7849628 5.55277568,49.5394046 4.58725703,50.9839112 C2.95950944,48.7670044 1.99468641,46.0326104 1.99468641,43.0767347 C1.99468641,40.7957515 2.56996301,38.6471 3.57930564,36.7652018 L3.57930564,36.7652018 Z M3.93963609,23.9944814 C5.84771798,26.554058 8.59262908,28.4526719 11.76465,29.2807907 C8.59054222,30.1103025 5.84354427,32.0110058 3.93546238,34.5733684 C3.58069688,32.8697699 3.39357547,31.1034879 3.39357547,29.2947204 C3.39357547,27.4782916 3.58278373,25.7057412 3.93963609,23.9944814 L3.93963609,23.9944814 Z M8.30116487,12.7003059 C6.18300616,15.3699269 4.563606,18.4518662 3.58487059,21.8061304 C2.57135425,19.9228392 1.99468641,17.7700089 1.99468641,15.4855432 C1.99468641,12.5470795 2.94837955,9.82940116 4.55734543,7.62085217 C5.52842903,9.06535883 6.78402065,10.8191041 8.30116487,12.7003059 L8.30116487,12.7003059 Z M4.62899415,6.12689519 C3.72329869,4.72278457 3.0436793,3.55687129 2.59987461,2.75661181 C3.39914042,3.20027177 4.56430161,3.87795015 5.96736438,4.78059269 C5.49225686,5.19917924 5.04497408,5.64980403 4.62899415,6.12689519 L4.62899415,6.12689519 Z M8.86809405,12.0086978 C7.38781762,10.1644097 6.13779095,8.41275384 5.1277527,6.89024104 C5.61607698,6.30867736 6.15239894,5.77029566 6.73115363,5.27927484 C8.25316719,6.28778286 10.0033436,7.53448822 11.8474286,9.01033663 C10.7775672,9.93039126 9.78144131,10.9333274 8.86809405,12.0086978 L8.86809405,12.0086978 Z M17.1223047,36.8780321 C15.7526316,38.0272298 14.3523513,39.2934367 12.9778089,40.6731704 C11.4648384,42.1908078 10.0958609,43.7300362 8.87922395,45.2072776 C6.7151544,42.4415418 5.09992796,39.2258778 4.20188431,35.723959 C6.4647317,32.2937781 10.2593313,29.964041 14.6034696,29.7209682 C14.7182467,29.7265401 14.834415,29.7272366 14.9498877,29.730719 C15.0291882,32.3501932 15.8145416,34.7941536 17.1223047,36.8780321 L17.1223047,36.8780321 Z M14.6034696,28.8406132 C10.2628094,28.5982369 6.47029665,26.2712858 4.20675364,22.8452837 C5.10479729,19.3572946 6.71445879,16.1527743 8.86878967,13.3946999 C10.0812529,14.8594046 11.4453611,16.3853998 12.9499841,17.8877146 C14.3398302,19.277199 15.7484579,20.5475848 17.1285652,21.7016579 C15.8208022,23.780661 15.0347532,26.2176565 14.9505833,28.8308624 C14.834415,28.8350413 14.7182467,28.8357378 14.6034696,28.8406132 L14.6034696,28.8406132 Z M24.2537868,54.1967893 L24.2537868,54.6585579 C24.0944902,54.6272161 23.9338023,54.6000533 23.7752012,54.5652291 C23.9372803,54.4461304 24.0972726,54.3228529 24.2537868,54.1967893 L24.2537868,54.1967893 Z M22.6295173,54.2915111 C19.1604672,53.3749389 15.9752296,51.7535254 13.2372746,49.5874619 C14.7112905,48.36583 16.2472164,46.9902752 17.7615782,45.4705483 C19.1340337,44.094297 20.3910166,42.6992407 21.5332224,41.3313472 C22.3825727,41.8753008 23.29592,42.3252291 24.2537868,42.6818286 L24.2537868,53.0385374 C23.7459852,53.4954305 23.2040983,53.916803 22.6295173,54.2915111 L22.6295173,54.2915111 Z M24.2537868,3.03799112 C23.7689406,3.12853397 23.2875725,3.2281311 22.8117694,3.34514032 C21.1548058,2.32130966 19.2738531,1.62830864 17.262124,1.35737658 L24.2537868,1.35737658 L24.2537868,3.03799112 Z M0.482411517,58.0413779 L25.1775684,58.0413779 L25.1775684,0.433839536 L0.482411517,0.433839536 L0.482411517,58.0413779 Z" id="Fill-14" fill="#4B918C" mask="url(#mask-6)"></path>
                </g>
                <g id="Group-19" transform="translate(118.255166, 0.000000)">
                    <mask id="mask-8" fill="white">
                        <use xlink:href="#path-7"></use>
                    </mask>
                    <g id="Clip-18"></g>
                    <path d="M3.03567968,9.02106248 C2.91464204,8.97579105 2.78525698,8.94793172 2.64752449,8.94793172 C2.04233629,8.94793172 1.55122954,9.43895254 1.55122954,10.0448931 C1.55122954,10.6501372 2.04233629,11.1418546 2.64752449,11.1418546 C3.25271269,11.1418546 3.74381944,10.6501372 3.74381944,10.0448931 C3.74381944,9.90420348 3.71529908,9.76978218 3.66660578,9.64580813 L9.81587443,3.48959099 C9.87917572,3.51536087 9.94525949,3.53695186 10.0141257,3.55157801 C10.2367237,3.5982424 10.4565392,3.57456197 10.652008,3.49376989 L16.767887,9.61794879 C16.7129331,9.74888767 16.6823259,9.89305975 16.6823259,10.0448931 C16.6823259,10.6501372 17.172737,11.1418546 17.7779252,11.1418546 C18.3831134,11.1418546 18.8742202,10.6501372 18.8742202,10.0448931 C18.8742202,9.43895254 18.3831134,8.94793172 17.7779252,8.94793172 C17.6513226,8.94793172 17.5316762,8.9737016 17.4182904,9.01270468 L11.264848,2.85161215 C11.2822385,2.80285831 11.3010202,2.75480096 11.3114545,2.70395766 C11.4359702,2.10985729 11.0561624,1.52829362 10.464191,1.40362308 C9.87152392,1.27964903 9.29068237,1.65992899 9.16616663,2.25263639 C9.1237339,2.45600956 9.14390684,2.65729327 9.20859937,2.83977194 L3.03567968,9.02106248 Z M8.82809598,13.6686965 L10.2311587,15.0735036 L11.6335259,13.6686965 L10.2311587,12.2645859 L8.82809598,13.6686965 Z M15.6875913,3.57665142 C15.8434098,3.57665142 15.990881,3.54252373 16.1244397,3.48401912 L22.2514486,9.61794879 C22.1957991,9.74888767 22.1651919,9.89305975 22.1651919,10.0448931 C22.1651919,10.6501372 22.6562986,11.1418546 23.2614868,11.1418546 C23.8666751,11.1418546 24.3570862,10.6501372 24.3570862,10.0448931 C24.3570862,9.43895254 23.8666751,8.94793172 23.2614868,8.94793172 C23.1348843,8.94793172 23.0152379,8.9737016 22.901852,9.01270468 L16.7226718,2.82584227 C16.7595396,2.71579788 16.7838862,2.60087812 16.7838862,2.47829703 C16.7838862,1.87235644 16.2934751,1.38133561 15.6875913,1.38133561 C15.082403,1.38133561 14.5912963,1.87235644 14.5912963,2.47829703 C14.5912963,3.08563059 15.082403,3.57665142 15.6875913,3.57665142 L15.6875913,3.57665142 Z M24.3744767,13.1129027 L21.3541006,16.1370338 C21.2233243,16.0827081 21.0786356,16.0506699 20.9276864,16.0506699 C20.3224982,16.0506699 19.832087,16.5423872 19.832087,17.1483278 C19.832087,17.7542684 20.3224982,18.2459857 20.9276864,18.2459857 C21.0688969,18.2459857 21.2017601,18.2167334 21.3255802,18.168676 L24.3744767,21.2220594 L24.3744767,27.5154838 L22.0601535,25.1975869 C22.1053687,25.0757023 22.1338891,24.9454599 22.1338891,24.8082526 C22.1338891,24.2023121 21.6427823,23.7112912 21.0375941,23.7112912 C20.4324059,23.7112912 19.9419948,24.2023121 19.9419948,24.8082526 C19.9419948,25.4148897 20.4324059,25.9059105 21.0375941,25.9059105 C21.1788047,25.9059105 21.3116678,25.8773547 21.435488,25.8286009 L24.3744767,28.7705469 L24.3744767,36.400523 L21.6970406,39.0798948 C21.5662643,39.0248727 21.4222712,38.9942274 21.271322,38.9942274 C20.6661338,38.9942274 20.1757226,39.4852482 20.1757226,40.0911888 C20.1757226,40.6971294 20.6661338,41.1895432 21.271322,41.1895432 C21.8765102,41.1895432 22.3669213,40.6971294 22.3669213,40.0911888 C22.3669213,39.9651253 22.3411834,39.8446337 22.3015331,39.7311069 L24.3744767,37.6562827 L24.3744767,49.2708406 L14.5259081,39.410028 L20.5311837,33.3979829 L19.9037357,32.7704513 L13.8984601,38.7817999 L10.7744369,35.6545893 L17.1991705,29.2225647 L16.5717225,28.5950331 L10.6144446,34.5590208 L10.6144446,28.1464978 L17.1518685,21.6009464 L16.5244205,20.9727183 L10.6144446,26.8900417 L10.6144446,20.6126364 L17.1003927,14.1172318 L16.4729447,13.4890038 L10.1901173,19.7789457 L10.1045562,19.7789457 L3.88155193,13.5482048 L3.25410393,14.1764329 L9.72613963,20.6572113 L9.72613963,26.9360096 L3.84329291,21.0458491 L3.21584491,21.6733807 L9.72613963,28.1917692 L9.72613963,34.6049887 L3.89476869,28.7670645 L3.26732069,29.3945961 L9.5195409,35.6538928 L6.39621326,38.7811034 L1.52549165,33.9057194 L1.52549165,6.17383817 L4.2314481,3.46521407 C4.29405378,3.49237692 4.35944193,3.51327142 4.42900379,3.52789758 C5.02097524,3.65256811 5.60181679,3.27298464 5.72633253,2.68027723 C5.85084826,2.08617685 5.47104049,1.50461318 4.87837342,1.38063913 C4.80602909,1.36531649 4.73368475,1.35835166 4.66273165,1.35765517 L24.3744767,1.35765517 L24.3744767,13.1129027 Z M24.3744767,19.9642103 L21.9495501,17.537662 C21.995461,17.4164739 22.0239813,17.285535 22.0239813,17.1483278 C22.0239813,17.0215678 21.9982434,16.9017726 21.9585932,16.7882458 L24.3744767,14.3700553 L24.3744767,19.9642103 Z M10.6144446,42.0705947 L10.6144446,36.7501577 L13.2710121,39.410028 L10.6144446,42.0705947 Z M24.3744767,56.7824145 L10.7751325,43.1654667 L13.8984601,40.0382561 L24.3744767,50.5279932 L24.3744767,56.7824145 Z M17.5761958,57.117423 C15.439951,54.9283756 10.5233186,49.8921038 10.4892333,49.8586726 L10.1755093,49.5438621 L2.61204794,57.117423 L1.52549165,57.117423 L1.52549165,52.4259105 L10.1476845,43.7936948 L23.4541732,57.117423 L17.5761958,57.117423 Z M3.86624832,57.117423 L10.1720312,50.8044971 C11.1820694,51.838775 14.4034793,55.1380171 16.3359078,57.117423 L3.86624832,57.117423 Z M7.02366127,39.410028 L9.72613963,36.7041898 L9.72613963,42.1165626 L7.02366127,39.410028 Z M1.52549165,44.9136402 L6.39621326,40.0382561 L9.5195409,43.1654667 L1.52549165,51.1701509 L1.52549165,44.9136402 Z M1.52549165,35.161479 L5.76876526,39.4093315 L1.52549165,43.657184 L1.52549165,35.161479 Z M1.52549165,1.35765415 L4.65299299,1.35765415 C4.14588701,1.35695869 3.68956119,1.71146876 3.58104469,2.22895596 C3.53861195,2.43302561 3.55878489,2.63361284 3.62347742,2.81678798 L1.52549165,4.91738204 L1.52549165,1.35765415 Z M0.603101349,58.0409601 L25.2975626,58.0409601 L25.2975626,0.433421646 L0.603101349,0.433421646 L0.603101349,58.0409601 Z" id="Fill-17" fill="#C94728" mask="url(#mask-8)"></path>
                </g>
            </g>
        </g>
    </g>
</svg>